<svg width="100" height="100" viewBox="0 0 100 100" fill="none" xmlns="http://www.w3.org/2000/svg">
<path d="M62.7596 88.1257H25.5929C22.0971 88.1146 18.7482 86.7182 16.2802 84.2423C13.8121 81.7665 12.4263 78.4132 12.4263 74.9173V37.8757C12.4373 34.387 13.828 31.0444 16.2948 28.5776C18.7617 26.1107 22.1043 24.72 25.5929 24.709H36.7179C37.2705 24.709 37.8004 24.9285 38.1911 25.3192C38.5818 25.7099 38.8013 26.2398 38.8013 26.7923C38.8013 27.3449 38.5818 27.8748 38.1911 28.2655C37.8004 28.6562 37.2705 28.8757 36.7179 28.8757H25.5929C23.2094 28.8866 20.9265 29.8383 19.2411 31.5238C17.5556 33.2093 16.6039 35.4921 16.5929 37.8757V74.9173C16.5929 77.3081 17.5398 79.6016 19.2264 81.2961C20.9131 82.9905 23.2022 83.948 25.5929 83.959H62.7596C63.947 83.959 65.1227 83.7251 66.2197 83.2707C67.3167 82.8164 68.3134 82.1503 69.153 81.3107C69.9926 80.4712 70.6586 79.4744 71.113 78.3774C71.5674 77.2804 71.8013 76.1047 71.8013 74.9173V67.5007C71.8013 66.9481 72.0208 66.4182 72.4115 66.0275C72.8022 65.6368 73.3321 65.4173 73.8846 65.4173C74.4371 65.4173 74.967 65.6368 75.3577 66.0275C75.7484 66.4182 75.9679 66.9481 75.9679 67.5007V74.9173C75.9679 78.4204 74.5763 81.78 72.0993 84.257C69.6223 86.7341 66.2627 88.1257 62.7596 88.1257Z" fill="#FF4343"/>
<path d="M73.7179 39.3756C73.1795 39.3761 72.6618 39.1681 72.2734 38.7952C71.885 38.4223 71.6561 37.9136 71.6345 37.3756C71.5516 35.8318 71.0629 34.3371 70.2179 33.0423C69.5377 31.9667 68.6268 31.0559 67.5512 30.3756C66.3002 29.5675 64.8689 29.0808 63.3845 28.959C63.1109 28.9483 62.842 28.8837 62.5934 28.7689C62.3447 28.6542 62.1211 28.4916 61.9353 28.2903C61.7495 28.0891 61.6053 27.8532 61.5108 27.5962C61.4163 27.3391 61.3734 27.066 61.3845 26.7923C61.3728 26.2647 61.5658 25.7529 61.9232 25.3645C62.2805 24.9761 62.7744 24.7412 63.3012 24.709C65.6148 24.8121 67.8588 25.5313 69.8012 26.7923C71.3832 27.7885 72.7216 29.127 73.7179 30.709C74.9789 32.6514 75.6981 34.8954 75.8012 37.209C75.8124 37.4826 75.7695 37.7558 75.675 38.0128C75.5805 38.2699 75.4362 38.5058 75.2505 38.707C75.0647 38.9082 74.8411 39.0709 74.5924 39.1856C74.3437 39.3003 74.0749 39.3649 73.8012 39.3756H73.7179Z" fill="#FF4343"/>
<path d="M54.4258 58.5006H44.1342C43.5816 58.5006 43.0517 58.2811 42.661 57.8904C42.2703 57.4997 42.0508 56.9698 42.0508 56.4172V45.9172C42.0476 45.3736 42.2569 44.8503 42.6342 44.4589L63.4675 23.6256C63.8569 23.2438 64.3805 23.03 64.9258 23.03C65.4711 23.03 65.9947 23.2438 66.3842 23.6256L70.0092 27.2506C70.3909 27.64 70.6047 28.1636 70.6047 28.7089C70.6047 29.2542 70.3909 29.7778 70.0092 30.1672C69.8155 30.3625 69.5851 30.5175 69.3312 30.6233C69.0773 30.729 68.805 30.7835 68.53 30.7835C68.255 30.7835 67.9827 30.729 67.7288 30.6233C67.4749 30.5175 67.2445 30.3625 67.0508 30.1672L64.9258 28.0839L46.0925 46.7922V54.3339H53.6342L72.5092 35.4172L70.3842 33.2922C70.0024 32.9028 69.7886 32.3792 69.7886 31.8339C69.7886 31.2886 70.0024 30.765 70.3842 30.3756C70.5778 30.1803 70.8083 30.0253 71.0621 29.9195C71.316 29.8138 71.5883 29.7593 71.8633 29.7593C72.1384 29.7593 72.4107 29.8138 72.6645 29.9195C72.9184 30.0253 73.1488 30.1803 73.3425 30.3756L76.9258 33.9589C77.1211 34.1526 77.2761 34.383 77.3819 34.6369C77.4876 34.8907 77.5421 35.163 77.5421 35.4381C77.5421 35.7131 77.4876 35.9854 77.3819 36.2393C77.2761 36.4931 77.1211 36.7236 76.9258 36.9172L56.0925 57.7506C55.8843 57.9873 55.6279 58.1767 55.3404 58.3061C55.0529 58.4354 54.7411 58.5018 54.4258 58.5006Z" fill="#FF4343"/>
<path d="M75.5928 37.5006C75.0365 37.506 74.4994 37.2971 74.0928 36.9173L70.5095 33.2923C70.1278 32.9028 69.914 32.3793 69.914 31.8339C69.914 31.2886 70.1278 30.765 70.5095 30.3756C70.7032 30.1803 70.9336 30.0254 71.1875 29.9196C71.4413 29.8138 71.7136 29.7594 71.9887 29.7594C72.2637 29.7594 72.536 29.8138 72.7899 29.9196C73.0437 30.0254 73.2741 30.1803 73.4678 30.3756L75.5928 32.5006L83.0928 24.9589L75.5928 17.4589L68.0512 24.9589L70.1762 27.0839C70.5579 27.4734 70.7717 27.997 70.7717 28.5423C70.7717 29.0876 70.5579 29.6112 70.1762 30.0006C69.9825 30.1959 69.7521 30.3509 69.4982 30.4566C69.2443 30.5624 68.972 30.6169 68.697 30.6169C68.422 30.6169 68.1497 30.5624 67.8958 30.4566C67.6419 30.3509 67.4115 30.1959 67.2178 30.0006L63.6345 26.4173C63.4343 26.2312 63.2753 26.0054 63.1677 25.7542C63.06 25.5031 63.0062 25.2322 63.0095 24.9589C63.0054 24.6794 63.0588 24.4021 63.1663 24.1441C63.2738 23.8861 63.4332 23.6529 63.6345 23.4589L74.0928 13.0423C74.2865 12.847 74.5169 12.692 74.7708 12.5862C75.0247 12.4805 75.297 12.426 75.572 12.426C75.847 12.426 76.1193 12.4805 76.3732 12.5862C76.6271 12.692 76.8575 12.847 77.0512 13.0423L87.5095 23.4589C87.8939 23.8554 88.1088 24.3859 88.1088 24.9381C88.1088 25.4903 87.8939 26.0208 87.5095 26.4173L77.0512 36.9173C76.6598 37.2945 76.1364 37.5039 75.5928 37.5006Z" fill="#FF4343"/>
</svg>
