<svg width="100" height="100" viewBox="0 0 100 100" fill="none" xmlns="http://www.w3.org/2000/svg">
<path d="M67.1081 63.1999H49.6497C49.0972 63.1999 48.5673 62.9804 48.1766 62.5897C47.7859 62.199 47.5664 61.6691 47.5664 61.1165C47.5664 60.564 47.7859 60.0341 48.1766 59.6434C48.5673 59.2527 49.0972 59.0332 49.6497 59.0332H67.1081C67.6606 59.0332 68.1905 59.2527 68.5812 59.6434C68.9719 60.0341 69.1914 60.564 69.1914 61.1165C69.1914 61.6691 68.9719 62.199 68.5812 62.5897C68.1905 62.9804 67.6606 63.1999 67.1081 63.1999Z" fill="#FF4343"/>
<path d="M78.8583 61.9082C78.6117 61.9667 78.3548 61.9667 78.1083 61.9082C77.8515 61.8157 77.6159 61.6726 77.4153 61.4874C77.2148 61.3022 77.0535 61.0787 76.9408 60.8301C76.8281 60.5815 76.7665 60.3128 76.7595 60.04C76.7524 59.7671 76.8002 59.4956 76.8999 59.2416L86.8166 32.7416C87.0128 32.2299 87.4028 31.8162 87.9019 31.59C88.401 31.3638 88.9692 31.3434 89.4833 31.5332C89.9989 31.7387 90.4159 32.1341 90.6485 32.638C90.8811 33.142 90.9114 33.7159 90.7333 34.2416L80.8166 60.6166C80.6486 60.9971 80.3746 61.3213 80.0274 61.5504C79.6801 61.7794 79.2742 61.9036 78.8583 61.9082Z" fill="#FF4343"/>
<path d="M36.3164 62.7C35.8817 62.7032 35.4573 62.5674 35.1051 62.3126C34.7528 62.0578 34.4911 61.6972 34.3581 61.2834L21.2747 21.5334H8.77474C8.22221 21.5334 7.6923 21.3139 7.3016 20.9232C6.9109 20.5325 6.69141 20.0026 6.69141 19.45C6.70207 18.9008 6.92499 18.3771 7.3134 17.9887C7.70182 17.6003 8.22555 17.3774 8.77474 17.3667H22.7747C23.2064 17.3759 23.6251 17.5164 23.9749 17.7695C24.3248 18.0226 24.5892 18.3762 24.7331 18.7834L38.4414 59.95C38.5327 60.207 38.5716 60.4796 38.5558 60.7519C38.5401 61.0241 38.4699 61.2904 38.3495 61.5351C38.2291 61.7798 38.0609 61.9979 37.8549 62.1765C37.6488 62.3551 37.409 62.4906 37.1497 62.575C36.885 62.6794 36.6001 62.7221 36.3164 62.7Z" fill="#FF4343"/>
<path d="M42.7334 81.45C40.2611 81.45 37.8444 80.7169 35.7888 79.3433C33.7332 77.9698 32.131 76.0176 31.1849 73.7335C30.2388 71.4494 29.9913 68.9361 30.4736 66.5113C30.9559 64.0866 32.1464 61.8593 33.8946 60.1111C35.6427 58.363 37.87 57.1725 40.2948 56.6901C42.7195 56.2078 45.2329 56.4554 47.5169 57.4015C49.801 58.3476 51.7533 59.9497 53.1268 62.0053C54.5003 64.0609 55.2334 66.4777 55.2334 68.95C55.2334 72.2652 53.9164 75.4446 51.5722 77.7888C49.228 80.133 46.0486 81.45 42.7334 81.45ZM42.7334 60.6166C41.0852 60.6166 39.4741 61.1054 38.1037 62.021C36.7332 62.9367 35.6651 64.2382 35.0344 65.7609C34.4037 67.2836 34.2386 68.9592 34.5602 70.5757C34.8817 72.1922 35.6754 73.6771 36.8408 74.8425C38.0063 76.008 39.4911 76.8016 41.1077 77.1232C42.7242 77.4447 44.3997 77.2797 45.9224 76.649C47.4452 76.0182 48.7466 74.9501 49.6623 73.5797C50.578 72.2093 51.0667 70.5981 51.0667 68.95C51.0667 66.7398 50.1888 64.6202 48.626 63.0574C47.0632 61.4946 44.9435 60.6166 42.7334 60.6166Z" fill="#FF4343"/>
<path d="M74.0249 81.45C71.5526 81.45 69.1359 80.7169 67.0803 79.3433C65.0247 77.9698 63.4225 76.0176 62.4764 73.7335C61.5303 71.4494 61.2828 68.9361 61.7651 66.5113C62.2474 64.0866 63.4379 61.8593 65.1861 60.1111C66.9342 58.363 69.1615 57.1725 71.5863 56.6901C74.011 56.2078 76.5244 56.4554 78.8084 57.4015C81.0925 58.3476 83.0448 59.9497 84.4183 62.0053C85.7918 64.0609 86.5249 66.4777 86.5249 68.95C86.5249 72.2652 85.2079 75.4446 82.8637 77.7888C80.5195 80.133 77.3401 81.45 74.0249 81.45ZM74.0249 60.6166C72.3767 60.6166 70.7656 61.1054 69.3952 62.021C68.0247 62.9367 66.9566 64.2382 66.3259 65.7609C65.6952 67.2836 65.5302 68.9592 65.8517 70.5757C66.1732 72.1922 66.9669 73.6771 68.1324 74.8425C69.2978 76.008 70.7826 76.8016 72.3992 77.1232C74.0157 77.4447 75.6912 77.2797 77.2139 76.649C78.7367 76.0182 80.0381 74.9501 80.9538 73.5797C81.8695 72.2093 82.3582 70.5981 82.3582 68.95C82.3582 66.7398 81.4803 64.6202 79.9175 63.0574C78.3547 61.4946 76.235 60.6166 74.0249 60.6166Z" fill="#FF4343"/>
</svg>
