<svg width="100" height="102" viewBox="0 0 100 102" fill="none" xmlns="http://www.w3.org/2000/svg">
<path d="M49.2996 90.2278C38.8015 90.2278 28.7333 85.9995 21.31 78.473C13.8867 70.9466 9.71631 60.7386 9.71631 50.0947C9.71631 39.4507 13.8867 29.2427 21.31 21.7163C28.7333 14.1898 38.8015 9.96155 49.2996 9.96155C49.8522 9.96155 50.3821 10.1841 50.7728 10.5802C51.1635 10.9763 51.383 11.5136 51.383 12.0738C51.383 12.634 51.1635 13.1713 50.7728 13.5674C50.3821 13.9635 49.8522 14.1861 49.2996 14.1861C43.4566 14.151 37.6957 15.5822 32.5305 18.3521C27.3653 21.122 22.9563 25.1447 19.6965 30.0614C16.4368 34.9782 14.4274 40.6363 13.8477 46.5314C13.268 52.4265 14.1359 58.3755 16.374 63.848C18.6121 69.3205 22.1509 74.1466 26.675 77.8961C31.199 81.6455 36.5678 84.2018 42.3027 85.3371C48.0376 86.4724 53.9604 86.1514 59.5433 84.4028C65.1261 82.6541 70.1956 79.5322 74.2996 75.3151C74.4849 75.0928 74.7135 74.9117 74.971 74.7831C75.2286 74.6545 75.5095 74.5814 75.7963 74.5681C76.0831 74.5549 76.3695 74.6018 76.6375 74.7061C76.9055 74.8104 77.1494 74.9697 77.3538 75.174C77.5582 75.3784 77.7188 75.6233 77.8254 75.8936C77.9321 76.1638 77.9825 76.4535 77.9735 76.7444C77.9645 77.0353 77.8963 77.3212 77.7731 77.5841C77.65 77.8471 77.4746 78.0814 77.258 78.2723C73.6149 82.0485 69.2661 85.0506 64.4657 87.1033C59.6653 89.1561 54.5095 90.2182 49.2996 90.2278Z" fill="#FF4343"/>
<path d="M48.0498 63.6131C47.7797 63.6219 47.5106 63.5739 47.2596 63.4721C47.0086 63.3703 46.7812 63.2169 46.5915 63.0216L29.9248 46.1235C29.7296 45.9271 29.5746 45.6935 29.4688 45.4361C29.363 45.1787 29.3086 44.9026 29.3086 44.6238C29.3086 44.3449 29.363 44.0688 29.4688 43.8114C29.5746 43.554 29.7296 43.3204 29.9248 43.1241C30.3213 42.7343 30.8518 42.5164 31.404 42.5164C31.9562 42.5164 32.4867 42.7343 32.8832 43.1241L48.0498 58.5436L82.0082 24.1136C82.4005 23.7159 82.9325 23.4924 83.4873 23.4924C84.0421 23.4924 84.5742 23.7159 84.9665 24.1136C85.3588 24.5114 85.5792 25.0508 85.5792 25.6133C85.5792 26.1758 85.3588 26.7153 84.9665 27.1131L49.5498 63.0216C49.351 63.2161 49.116 63.3686 48.8584 63.4701C48.6009 63.5717 48.3261 63.6203 48.0498 63.6131Z" fill="#FF4343"/>
</svg>
