<svg width="100" height="100" viewBox="0 0 100 100" fill="none" xmlns="http://www.w3.org/2000/svg">
<path d="M29.4919 87.4082C27.9912 87.3711 26.5376 86.8769 25.3252 85.9916C24.0464 85.0723 23.0996 83.7638 22.6264 82.2616C22.1532 80.7594 22.1791 79.1445 22.7002 77.6583L27.9502 61.4916C28.1555 60.8537 28.1531 60.1672 27.9435 59.5308C27.7338 58.8944 27.3277 58.3409 26.7836 57.9499L13.0336 47.9499C11.7966 47.045 10.8743 45.7752 10.3962 44.3191C9.91812 42.8629 9.90825 41.2936 10.368 39.8316C10.8278 38.3695 11.734 37.0883 12.9595 36.1679C14.185 35.2474 15.668 34.7341 17.2002 34.6999H34.2002C34.8395 34.7146 35.4683 34.5353 36.0038 34.1858C36.5393 33.8362 36.9564 33.3328 37.2002 32.7416L42.4502 16.5333C42.8944 15.0382 43.8142 13.7289 45.07 12.8039C46.3258 11.879 47.849 11.389 49.4086 11.4083C50.9559 11.3904 52.468 11.871 53.7211 12.7789C54.9742 13.6869 55.9019 14.974 56.3669 16.4499L61.6169 32.7416C61.832 33.3683 62.2359 33.9131 62.773 34.301C63.3102 34.689 63.9543 34.9011 64.6169 34.9083H81.6586C83.1908 34.9424 84.6738 35.4558 85.8993 36.3762C87.1247 37.2966 88.031 38.5779 88.4908 40.0399C88.9505 41.5019 88.9407 43.0713 88.4626 44.5274C87.9845 45.9836 87.0622 47.2533 85.8252 48.1583L72.0752 58.1583C71.5311 58.5492 71.125 59.1027 70.9153 59.7392C70.7057 60.3756 70.7033 61.0621 70.9086 61.6999L76.2002 77.9083C76.7102 79.3994 76.7262 81.0152 76.2459 82.5162C75.7656 84.0172 74.8145 85.3235 73.5336 86.2416C72.2908 87.1779 70.7771 87.6843 69.2211 87.6843C67.6651 87.6843 66.1513 87.1779 64.9086 86.2416L51.1586 76.2416C50.6165 75.8577 49.9686 75.6516 49.3044 75.6516C48.6402 75.6516 47.9923 75.8577 47.4502 76.2416L33.6586 86.2416C32.423 87.0505 30.9678 87.4579 29.4919 87.4082ZM17.1586 38.9916C16.4898 38.9726 15.8335 39.1745 15.2912 39.5662C14.7488 39.9579 14.3507 40.5175 14.1586 41.1583C13.9423 41.7913 13.9349 42.4769 14.1374 43.1145C14.3399 43.752 14.7417 44.3077 15.2836 44.6999L29.0752 54.6999C30.351 55.6224 31.298 56.929 31.7778 58.4284C32.2577 59.9279 32.2451 61.5415 31.7419 63.0333L26.4919 79.0749C26.2688 79.7073 26.2579 80.3952 26.4609 81.0343C26.6639 81.6734 27.0698 82.2289 27.6169 82.6166C28.1485 83.0254 28.8004 83.2471 29.4711 83.2471C30.1417 83.2471 30.7936 83.0254 31.3252 82.6166L45.2419 72.6166C46.4862 71.7027 47.9897 71.2099 49.5336 71.2099C51.0774 71.2099 52.5809 71.7027 53.8252 72.6166L67.4919 82.7416C68.0235 83.1504 68.6754 83.3721 69.3461 83.3721C70.0167 83.3721 70.6686 83.1504 71.2002 82.7416C71.7474 82.3539 72.1532 81.7984 72.3562 81.1593C72.5592 80.5202 72.5484 79.8323 72.3252 79.1999L67.0752 63.0333C66.5721 61.5415 66.5595 59.9279 67.0393 58.4284C67.5191 56.929 68.4662 55.6224 69.7419 54.6999L83.4919 44.6999C84.0227 44.3057 84.4168 43.7551 84.6189 43.1256C84.8209 42.496 84.8209 41.819 84.6187 41.1895C84.4165 40.5599 84.0223 40.0095 83.4915 39.6153C82.9606 39.2212 82.3197 39.003 81.6586 38.9916H64.6169C63.0884 38.9726 61.6041 38.4764 60.3715 37.5725C59.1388 36.6685 58.2195 35.402 57.7419 33.9499L52.4086 17.7416C52.2164 17.1008 51.8183 16.5412 51.276 16.1495C50.7336 15.7579 50.0773 15.5559 49.4086 15.5749C48.7398 15.5559 48.0835 15.7579 47.5412 16.1495C46.9988 16.5412 46.6007 17.1008 46.4086 17.7416L41.0752 33.9499C40.5977 35.402 39.6783 36.6685 38.4456 37.5725C37.213 38.4764 35.7287 38.9726 34.2002 38.9916H17.1586Z" fill="#FF4343"/>
</svg>
